<svg xmlns="http://www.w3.org/2000/svg" width="40pt" height="40pt" viewBox="0 0 40 40">
    <g fill="#505a6f">
        <path
            d="M30.953 29.258C36.281 26.859 40 21.508 40 15.3 40 6.863 33.137 0 24.7 0H5.897A5.908 5.908 0 0 0 0 5.898v28.204A5.908 5.908 0 0 0 5.898 40h27.454a3.396 3.396 0 0 0 3.191-2.133 3.403 3.403 0 0 0-.746-3.765ZM5.898 2.398H24.7c7.113 0 12.903 5.79 12.903 12.903 0 5.562-3.543 10.312-8.489 12.113L11.45 9.746a1.221 1.221 0 0 0-.847-.351H5.898c-1.93 0-3.5-1.567-3.5-3.5a3.5 3.5 0 0 1 3.5-3.497Zm28.43 34.551c-.062.153-.32.653-.976.653H5.898c-1.93 0-3.5-1.57-3.5-3.5V10.645a5.891 5.891 0 0 0 3.5 1.152h4.207l23.997 23.996c.46.469.289 1 .226 1.156Zm0 0" />
        <path
            d="M5.715 25.8h11.601a1.2 1.2 0 0 0 0-2.402H5.715a1.2 1.2 0 0 0-1.2 1.204c0 .664.536 1.199 1.2 1.199ZM5.715 21h7.2a1.2 1.2 0 1 0 0-2.398h-7.2c-.664 0-1.2.535-1.2 1.199S5.052 21 5.716 21ZM22.117 28.2H5.715a1.2 1.2 0 0 0 0 2.402h16.402a1.2 1.2 0 0 0 0-2.403Zm0 0" />
    </g>
</svg>
